<svg xmlns="http://www.w3.org/2000/svg" xmlns:xlink="http://www.w3.org/1999/xlink" version="1.0" width="500" height="600"><defs><radialGradient xlink:href="#a" id="b" cx="210.3" cy="306.3" fx="351.7" fy="95.4" r="226.1" gradientTransform="matrix(.84253 -.99612 1.00033 .84609 -233.6 174.1)" gradientUnits="userSpaceOnUse"/><linearGradient id="a"><stop offset="0" stop-color="#fda9a9"/><stop offset="1" stop-color="#ff8080" stop-opacity="0"/></linearGradient><filter id="c" x="-.1" width="1.2" y="-.6" height="2.2"><feGaussianBlur stdDeviation="15.4"/></filter></defs><path d="M466 242.8c0 120.2-98 217.7-219 217.7-120.9 0-219-97.5-219-217.7 0-120.2 98.1-217.6 219-217.6 121 0 219 97.4 219 217.6z" fill="#fff" stroke="red" stroke-width="20"/><path d="M163.8 97.7l83.3 139.7" fill="none" stroke="#e0e0e0" stroke-width="20" stroke-linecap="round" stroke-linejoin="round"/><path d="M247 76v161.4" fill="none" stroke="#bfbfbf" stroke-width="20" stroke-linecap="round" stroke-linejoin="round"/><path d="M330.3 97.7L247 237.4" fill="none" stroke="gray" stroke-width="20" stroke-linecap="round" stroke-linejoin="round"/><path d="M134 183.6l110 61.6L388 164.5" fill="none" stroke="#000" stroke-width="20" stroke-linecap="round" stroke-linejoin="round"/><path d="M492 247.4a225 217.3 0 11-450 0 225 217.3 0 11450 0z" transform="matrix(.84888 0 0 .82285 21.2 36.8)" fill="none" stroke="#f30000" stroke-width="17.9" stroke-linejoin="round" stroke-dasharray="17.9 215.4" stroke-dashoffset="79"/><path d="M25.7 255.9C33 138 77.5 79.3 177 34.4a228 228 0 01181 19.5c102 67 103.3 129.4 110 202.8" fill="none" stroke="url(#b)" stroke-width="12" stroke-linecap="round"/><path d="M492.9 684a190.3 21.8 0 11-380.6 0 190.3 21.8 0 11380.6 0z" transform="matrix(.89344 0 0 1 -12 -154.4)" opacity=".1" fill="#ff2a2a" fill-rule="evenodd" stroke="#ff2a2a" stroke-width="19" stroke-linecap="square" stroke-miterlimit="0" filter="url(#c)"/></svg>