<svg xmlns="http://www.w3.org/2000/svg" width="256" height="256" display="block" preserveAspectRatio="xMidYMid" style="margin:auto;background:0% 0%" viewBox="0 0 100 100"><defs/><rect width="5" height="10" x="47.5" y="20" fill="#ff0024" rx="2.5" ry="3"><animate attributeName="opacity" begin="-0.9s" dur="1s" keyTimes="0;1" repeatCount="indefinite" values="1;0"/></rect><rect width="5" height="10" x="47.5" y="20" fill="#ff0024" rx="2.5" ry="3" transform="rotate(36 50 50)"><animate attributeName="opacity" begin="-0.8s" dur="1s" keyTimes="0;1" repeatCount="indefinite" values="1;0"/></rect><rect width="5" height="10" x="47.5" y="20" fill="#ff0024" rx="2.5" ry="3" transform="rotate(72 50 50)"><animate attributeName="opacity" begin="-0.7s" dur="1s" keyTimes="0;1" repeatCount="indefinite" values="1;0"/></rect><rect width="5" height="10" x="47.5" y="20" fill="#ff0024" rx="2.5" ry="3" transform="rotate(108 50 50)"><animate attributeName="opacity" begin="-0.6s" dur="1s" keyTimes="0;1" repeatCount="indefinite" values="1;0"/></rect><rect width="5" height="10" x="47.5" y="20" fill="#ff0024" rx="2.5" ry="3" transform="rotate(144 50 50)"><animate attributeName="opacity" begin="-0.5s" dur="1s" keyTimes="0;1" repeatCount="indefinite" values="1;0"/></rect><rect width="5" height="10" x="47.5" y="20" fill="#ff0024" rx="2.5" ry="3" transform="rotate(180 50 50)"><animate attributeName="opacity" begin="-0.4s" dur="1s" keyTimes="0;1" repeatCount="indefinite" values="1;0"/></rect><rect width="5" height="10" x="47.5" y="20" fill="#ff0024" rx="2.5" ry="3" transform="rotate(216 50 50)"><animate attributeName="opacity" begin="-0.3s" dur="1s" keyTimes="0;1" repeatCount="indefinite" values="1;0"/></rect><rect width="5" height="10" x="47.5" y="20" fill="#ff0024" rx="2.5" ry="3" transform="rotate(252 50 50)"><animate attributeName="opacity" begin="-0.2s" dur="1s" keyTimes="0;1" repeatCount="indefinite" values="1;0"/></rect><rect width="5" height="10" x="47.5" y="20" fill="#ff0024" rx="2.5" ry="3" transform="rotate(288 50 50)"><animate attributeName="opacity" begin="-0.1s" dur="1s" keyTimes="0;1" repeatCount="indefinite" values="1;0"/></rect><rect width="5" height="10" x="47.5" y="20" fill="#ff0024" rx="2.5" ry="3" transform="rotate(324 50 50)"><animate attributeName="opacity" begin="0s" dur="1s" keyTimes="0;1" repeatCount="indefinite" values="1;0"/></rect></svg>